<svg xmlns="http://www.w3.org/2000/svg" width="35" height="23" viewBox="0 0 35 23">
  <path id="google" d="M2552.637,5390.813a11.3,11.3,0,0,1,0-15.626,10.3,10.3,0,0,1,7.69-3.188,10.072,10.072,0,0,1,7.286,2.879l-2.935,2.878a5.9,5.9,0,0,0-4.351-1.645,6.533,6.533,0,0,0-4.756,2.057,7.158,7.158,0,0,0-2.024,4.934,6.808,6.808,0,0,0,2.024,4.936,6.532,6.532,0,0,0,4.756,2.055,6.988,6.988,0,0,0,4.048-1.233,5.144,5.144,0,0,0,2.125-3.5h-6.173v-3.8h10.221a11.459,11.459,0,0,1,.2,1.851c0,3.187-.911,5.757-2.935,7.608a9.974,9.974,0,0,1-7.488,2.981A10.3,10.3,0,0,1,2552.637,5390.813Zm24.69-2.879v-3.186h-3.136v-3.188h3.136v-3.187h3.137v3.187h3.036v3.188h-3.036v3.186Z" transform="translate(-2549 -5371.5)" fill="#323642" stroke="rgba(0,0,0,0)" stroke-miterlimit="10" stroke-width="1"/>
</svg>
