<svg xmlns="http://www.w3.org/2000/svg" width="28" height="28" viewBox="0 0 28 28">
  <path id="instagram" d="M2575.771,5400h-24.024a2.153,2.153,0,0,1-2.247-1.954V5373.9a2.108,2.108,0,0,1,2.247-1.9h24.024a1.671,1.671,0,0,1,1.729,1.9v24.149A1.717,1.717,0,0,1,2575.771,5400Zm-15.206-17.183c.046,1.062.016,9.1,0,12.512,0,.133,0,.208,0,.216h4.207v-7.183a2.737,2.737,0,0,1,.148-1.031,2.366,2.366,0,0,1,2.188-1.548c1.4,0,2.117.969,2.117,2.88v6.88h4.456v-7.37a6.15,6.15,0,0,0-1.445-4.332,4.741,4.741,0,0,0-3.544-1.4,4.455,4.455,0,0,0-3.921,2.1v-1.733Zm-6.611,0v12.728h3.816v-12.728Zm2.153-6.231a2.2,2.2,0,0,0-2.409,2.172,2.161,2.161,0,0,0,2.354,2.151h.028a2.173,2.173,0,1,0,.027-4.323Z" transform="translate(-2549.5 -5372)" fill="#323642"/>
</svg>
