<svg xmlns="http://www.w3.org/2000/svg" width="119.745" height="38.439" viewBox="0 0 119.745 38.439">
  <g id="Group_5" data-name="Group 5" transform="translate(-1138.047 -3103.819)">
    <path id="Union_1" data-name="Union 1" d="M9.507,13.356c-.35-.326-.047-.768.391-.513a35,35,0,0,0,17.43,4.614,34.674,34.674,0,0,0,13.309-2.726c.652-.261,1.189.442.56.913l0-.005A25.23,25.23,0,0,1,26.938,20,25.858,25.858,0,0,1,9.507,13.356Zm32.274,5.133a.307.307,0,0,1,0-.285l.035-.088c.478-1.195,1.473-3.681.99-4.317-.191-.246-.755-.371-1.675-.371a23.838,23.838,0,0,0-2.823.231.552.552,0,0,1-.07,0c-.128,0-.217-.05-.244-.138-.035-.117.051-.266.22-.379a6.987,6.987,0,0,1,3.9-1.071,4.039,4.039,0,0,1,2.349.489,1.527,1.527,0,0,1,.127.891,7.449,7.449,0,0,1-.287,1.59,7.03,7.03,0,0,1-2.031,3.39.537.537,0,0,1-.318.134A.2.2,0,0,1,41.781,18.488Zm6.525-8.383a5.8,5.8,0,0,1-.887-1.866,8.415,8.415,0,0,1-.3-2.294,8,8,0,0,1,.4-2.638,5.157,5.157,0,0,1,1.2-2A4.015,4.015,0,0,1,50.037.416a4.668,4.668,0,0,1,3.718.14,4.211,4.211,0,0,1,1.475,1.261,5.8,5.8,0,0,1,.9,1.886,8.547,8.547,0,0,1,.306,2.334A7.6,7.6,0,0,1,56.11,8.3a5.719,5.719,0,0,1-.941,1.836,4.385,4.385,0,0,1-1.483,1.233,4.3,4.3,0,0,1-1.954.451A4.1,4.1,0,0,1,48.306,10.105ZM50.124,5.62v.055a11.22,11.22,0,0,0,.2,2.477c.237.995.7,1.5,1.387,1.5s1.174-.43,1.433-1.277a8.142,8.142,0,0,0,.244-2.287,10.28,10.28,0,0,0-.3-2.8,1.288,1.288,0,0,0-1.352-1.026C50.307,2.264,50.124,4.057,50.124,5.62Zm-21.319,5.9a2.68,2.68,0,0,1-1.63-1.6,3.868,3.868,0,0,1-.238-1.393,3.6,3.6,0,0,1,.616-2.1,3.657,3.657,0,0,1,1.574-1.259,11.617,11.617,0,0,1,3.261-.655c.213-.022.413-.044.607-.066V4.194c0-.056,0-.112,0-.171v0A2.161,2.161,0,0,0,32.735,2.7a1.375,1.375,0,0,0-1.142-.535A1.536,1.536,0,0,0,29.939,3.4c-.045.18-.161.373-.35.373l-1.981-.21a.362.362,0,0,1-.3-.419A3.489,3.489,0,0,1,29.041.664,6.288,6.288,0,0,1,33.524.226a3.5,3.5,0,0,1,1.471.8A2.659,2.659,0,0,1,35.8,2.5a8.565,8.565,0,0,1,.108,1.759c0,.094,0,.2,0,.305V7.76a2.612,2.612,0,0,0,.641,1.732c.042.058.085.117.128.178a.491.491,0,0,1,.11.357.265.265,0,0,1-.11.179c-.288.228-.707.586-1.077.9h0c-.2.169-.384.328-.53.45v0a.42.42,0,0,1-.489.046,4.517,4.517,0,0,1-1.044-1.162h0l-.144-.211a5.073,5.073,0,0,1-1.567,1.174,4.359,4.359,0,0,1-1.812.318A3.538,3.538,0,0,1,28.806,11.524Zm2.1-5.034a1.762,1.762,0,0,0-.969,1.692c0,.906.494,1.491,1.258,1.491a1.65,1.65,0,0,0,1.421-.932,3.926,3.926,0,0,0,.373-2.065c0-.042,0-.083,0-.126V6.109A4.561,4.561,0,0,0,30.91,6.491ZM1.867,11.524a2.679,2.679,0,0,1-1.629-1.6A3.873,3.873,0,0,1,0,8.532a3.6,3.6,0,0,1,.616-2.1A3.658,3.658,0,0,1,2.189,5.176a11.629,11.629,0,0,1,3.262-.655c.213-.023.413-.044.607-.066V4.194c0-.056,0-.113,0-.172A2.161,2.161,0,0,0,5.8,2.7a1.375,1.375,0,0,0-1.142-.535A1.536,1.536,0,0,0,3,3.4c-.044.18-.159.373-.35.373L.671,3.565a.361.361,0,0,1-.3-.419A3.487,3.487,0,0,1,2.1.664,5.876,5.876,0,0,1,4.96,0,5.918,5.918,0,0,1,6.587.226a3.5,3.5,0,0,1,1.471.8A2.657,2.657,0,0,1,8.865,2.5a8.563,8.563,0,0,1,.108,1.758c0,.1,0,.2,0,.305V7.76a2.611,2.611,0,0,0,.643,1.734c.042.057.084.116.127.176a.491.491,0,0,1,.11.357.265.265,0,0,1-.11.179c-.285.225-.7.578-1.064.89-.2.174-.4.337-.545.462v0a.42.42,0,0,1-.489.046A4.5,4.5,0,0,1,6.6,10.45c-.046-.068-.094-.139-.147-.216a5.086,5.086,0,0,1-1.568,1.174,4.357,4.357,0,0,1-1.812.318A3.541,3.541,0,0,1,1.867,11.524ZM4,6.491a1.762,1.762,0,0,0-.969,1.692c0,.906.494,1.491,1.259,1.491a1.654,1.654,0,0,0,1.421-.932,3.926,3.926,0,0,0,.373-2.065c0-.042,0-.083,0-.126V6.109A4.564,4.564,0,0,0,4,6.491Zm20.75,5.117H22.719a.4.4,0,0,1-.373-.372V5.643c0-.1,0-.223,0-.37a9.857,9.857,0,0,0-.05-1.611,1.079,1.079,0,0,0-1.212-.913,1.369,1.369,0,0,0-1.234.862,5.822,5.822,0,0,0-.187,1.86q0,.087,0,.167v5.592a.391.391,0,0,1-.391.373H17.219a.4.4,0,0,1-.372-.373V5.643c0-.116,0-.236,0-.363a8.728,8.728,0,0,0-.041-1.248,1.7,1.7,0,0,0-.4-1,1.1,1.1,0,0,0-.819-.3,1.214,1.214,0,0,0-.9.332,3.714,3.714,0,0,0-.526,2.47v5.7a.41.41,0,0,1-.405.35H11.7a.423.423,0,0,1-.373-.35V.7A.391.391,0,0,1,11.715.33h1.911A.378.378,0,0,1,14,.68V2.054h.047A3.035,3.035,0,0,1,15.109.577,2.779,2.779,0,0,1,16.748.1a2.58,2.58,0,0,1,1.6.481,3.425,3.425,0,0,1,1.057,1.477,3.133,3.133,0,0,1,.48-.866,2.8,2.8,0,0,1,.67-.611A3.1,3.1,0,0,1,22.248.1h.058a2.89,2.89,0,0,1,2.319,1.166,4.524,4.524,0,0,1,.519,2.792c0,.171-.006.347-.006.517v6.665a.391.391,0,0,1-.391.372Zm41.278-.022H63.966a.424.424,0,0,1-.373-.326V5.526c0-.094,0-.189,0-.289a8.717,8.717,0,0,0-.048-1.249,1.715,1.715,0,0,0-.41-1,1.114,1.114,0,0,0-.825-.305,1.353,1.353,0,0,0-1.189.839,4.8,4.8,0,0,0-.326,2v5.686a.428.428,0,0,1-.419.373H58.326a.4.4,0,0,1-.373-.373V.656a.4.4,0,0,1,.391-.35h1.919a.4.4,0,0,1,.373.3V2.217h.047a3.678,3.678,0,0,1,1.083-1.6,2.3,2.3,0,0,1,.758-.39A3.253,3.253,0,0,1,63.48.1a2.724,2.724,0,0,1,2.4,1.236,6.707,6.707,0,0,1,.535,3.286v6.642a.39.39,0,0,1-.386.326Zm-28.045-.652V9.395a1.735,1.735,0,0,1,.261-1.026l4.055-5.8H38.772a.391.391,0,0,1-.391-.373h0V.68a.355.355,0,0,1,.355-.374H45.51A.391.391,0,0,1,45.9.68V1.961a2.247,2.247,0,0,1-.513.955L41.893,7.9l.212,0a9.284,9.284,0,0,1,1.868.177,6.161,6.161,0,0,1,1.765.64.7.7,0,0,1,.35.582v1.609a.384.384,0,0,1-.343.389.3.3,0,0,1-.147-.04,7.641,7.641,0,0,0-3.561-.863,7.522,7.522,0,0,0-3.569.885.286.286,0,0,1-.13.031A.39.39,0,0,1,37.979,10.933Z" transform="translate(1138.047 3121.286)" fill="#889099"/>
    <path id="Exclusion_4" data-name="Exclusion 4" d="M2590.416,5403.278h-33.2a4.2,4.2,0,0,1-4.149-3.561l-3.568-23.226.564.232a4.869,4.869,0,0,0,2.552.309l34.048-5a4.045,4.045,0,0,1,4.486,3.393l3.555,22.848a4.341,4.341,0,0,1-4.289,5.008Zm-11.44-7.186c-.195,0-.292.1-.3.312,0,.147,0,.286,0,.421v.013c0,.072,0,.141,0,.21a.492.492,0,0,0,.48.576,6.86,6.86,0,0,0,1.1.13h.094a2.7,2.7,0,0,0,2.472-1.39,8.6,8.6,0,0,0,.6-1.2c1.557-3.933,3.1-7.856,4.583-11.661a1.717,1.717,0,0,0,.1-.358.259.259,0,0,0-.044-.213.248.248,0,0,0-.2-.072c-.129,0-.27,0-.431,0h-.9a.488.488,0,0,0-.465.339c-.019.053-.041.106-.06.154s-.03.071-.043.106l-2.26,6.493q-.1.293-.206.591l-.019.053c-.09.258-.183.523-.275.792-.009-.024-.017-.045-.023-.063l0-.013c-.011-.029-.02-.054-.032-.08l-1.517-4.2-1-2.76c-.09-.254-.186-.511-.286-.773l-.021-.057c-.034-.089-.068-.179-.1-.268a.431.431,0,0,0-.413-.311l-.491,0h-.1l-.4,0c-.172,0-.335,0-.5.006a.208.208,0,0,0-.166.071.26.26,0,0,0-.041.22,2.784,2.784,0,0,0,.125.4c1.272,3.148,2.563,6.327,3.836,9.448a.876.876,0,0,1,.013.766c-.1.219-.19.447-.278.668l-.008.02c-.094.237-.2.505-.318.76a1.487,1.487,0,0,1-.987.864,2.791,2.791,0,0,1-1,.072c-.076-.007-.155-.019-.23-.031s-.172-.028-.256-.034Zm-21.236-13.216c-.447,0-.531.084-.531.533v13.781a.314.314,0,0,0,.313.325h1.39a.322.322,0,0,0,.225-.093.317.317,0,0,0,.094-.231V5392.3l.046.038c.042.035.071.06.1.084a4.523,4.523,0,0,0,2.955,1.1,5.27,5.27,0,0,0,1.006-.1,3.949,3.949,0,0,0,2.844-2.266,6.684,6.684,0,0,0,.67-2.871,7.424,7.424,0,0,0-.522-3.234,3.844,3.844,0,0,0-2.852-2.395c-.134-.03-.274-.049-.409-.067h-.006c-.076-.01-.148-.02-.22-.031h-.541l-.28.041a5.263,5.263,0,0,0-2.467.979c-.116.083-.223.166-.35.266l-.011.008-.1.078a.316.316,0,0,1-.026-.092c-.023-.156-.052-.35-.085-.532a.437.437,0,0,0-.492-.428Zm14.473,4.316a5.536,5.536,0,0,0-1.71.271,3.179,3.179,0,0,0-1.909,1.618,3.391,3.391,0,0,0-.253,1.993,2.663,2.663,0,0,0,1.4,2.064,3.378,3.378,0,0,0,1.681.413,5.2,5.2,0,0,0,.78-.063,5.358,5.358,0,0,0,2.609-1.193.435.435,0,0,1,.1-.072c.011.068.021.135.031.2v.009c.027.173.052.337.084.5a.369.369,0,0,0,.351.338h1.058a.314.314,0,0,0,.312-.305,1.567,1.567,0,0,0,.007-.182v-6.882a5.117,5.117,0,0,0-.06-.838,2.566,2.566,0,0,0-1.233-1.974,3.707,3.707,0,0,0-1.416-.461c-.12-.017-.244-.03-.354-.042s-.231-.026-.348-.042c-.252.007-.516.007-.771.007a.67.67,0,0,0-.121.015l-.067.011a9.674,9.674,0,0,0-1.877.26c-.328.088-.659.2-.979.315l-.006,0-.177.062a.467.467,0,0,0-.344.5c0,.139,0,.28,0,.416v.013c0,.071,0,.142,0,.213.005.241.083.344.261.344a.781.781,0,0,0,.181-.025l.323-.084.015,0c.388-.1.789-.206,1.187-.281a7.174,7.174,0,0,1,2.415-.092,1.6,1.6,0,0,1,1.092.546,1.788,1.788,0,0,1,.344,1.064c.013.359.014.73.015,1.058,0,.188,0,.374,0,.559a.4.4,0,0,1-.014.091.23.23,0,0,0-.044,0,.215.215,0,0,1-.04,0,11.706,11.706,0,0,0-2.077-.319C2572.511,5387.2,2572.359,5387.193,2572.213,5387.193Zm-.2,4.836a2.231,2.231,0,0,1-.777-.14,1.306,1.306,0,0,1-.8-.863,2.125,2.125,0,0,1-.007-1.257,1.49,1.49,0,0,1,1.064-1.013,4,4,0,0,1,1.611-.144c.34.029.682.081,1.012.132h.008c.186.029.4.061.6.088.1.012.138.059.138.169,0,.2,0,.4,0,.6v.018c0,.1,0,.207,0,.311,0,.128,0,.253,0,.374,0,.167-.006.357,0,.541a.212.212,0,0,1-.1.194,4.954,4.954,0,0,1-2.428.968A2.208,2.208,0,0,1,2572.012,5392.029Zm-10.059-.159c-.063,0-.128,0-.192,0a4.493,4.493,0,0,1-2.429-.9.238.238,0,0,1-.11-.216c.006-.594,0-1.2,0-1.782v-.1q0-.426,0-.854,0-.458,0-.913v-.054c0-.578,0-1.176,0-1.767a.226.226,0,0,1,.11-.214,4.547,4.547,0,0,1,2.619-.871c.109,0,.224,0,.342.014a2.365,2.365,0,0,1,2.177,1.682,6.14,6.14,0,0,1,.317,2.143,6.431,6.431,0,0,1-.26,1.988A2.471,2.471,0,0,1,2561.953,5391.87Z" transform="translate(-1342.283 -2261.02)" fill="#889099"/>
    <path id="Path_9" data-name="Path 9" d="M645.372,356.458l3.653,24.057a4.682,4.682,0,0,1-1.238,2.942,4.568,4.568,0,0,1-1.889,1.189q-1.925-12.717-3.849-25.429a3.487,3.487,0,0,0-4.072-2.907l-34.588,6.3a1.1,1.1,0,0,1,0-2.159l36.7-7.666a4.428,4.428,0,0,1,5.283,3.67Z" transform="translate(608.766 2751.125)" fill="#889099"/>
  </g>
</svg>
