<svg xmlns="http://www.w3.org/2000/svg" xmlns:xlink="http://www.w3.org/1999/xlink" width="259.026" height="33.907" viewBox="0 0 259.026 33.907">
  <defs>
    <linearGradient id="linear-gradient" x1="0.5" y1="0.999" x2="0.5" y2="0.088" gradientUnits="objectBoundingBox">
      <stop offset="0" stop-color="#4cb649"/>
      <stop offset="1" stop-color="#78b280"/>
    </linearGradient>
    <radialGradient id="radial-gradient" cx="0.511" cy="0.552" r="0.469" gradientUnits="objectBoundingBox">
      <stop offset="0"/>
      <stop offset="0.19" stop-color="#030303"/>
      <stop offset="0.324" stop-color="#0c0c0c"/>
      <stop offset="0.44" stop-color="#1c1c1c"/>
      <stop offset="0.546" stop-color="#323232"/>
      <stop offset="0.646" stop-color="#4e4e4e"/>
      <stop offset="0.74" stop-color="#717171"/>
      <stop offset="0.831" stop-color="#9a9a9a"/>
      <stop offset="0.916" stop-color="#c9c9c9"/>
      <stop offset="0.998" stop-color="#fefefe"/>
      <stop offset="1" stop-color="#fff"/>
    </radialGradient>
    <linearGradient id="linear-gradient-2" x1="-0.488" y1="-0.665" x2="0.565" y2="0.577" gradientUnits="objectBoundingBox">
      <stop offset="0" stop-color="#23ff16"/>
      <stop offset="1" stop-color="#189a33"/>
    </linearGradient>
    <linearGradient id="linear-gradient-3" x1="1.743" y1="-1.16" x2="0.243" y2="0.843" xlink:href="#linear-gradient-2"/>
  </defs>
  <g id="Group_2" data-name="Group 2" transform="translate(-60.969 -82.039)">
    <g id="Group" transform="translate(60.969 82.039)">
      <path id="Shape" d="M27.591,12.282H26.214v-1.23a11.114,11.114,0,0,0-22.228,0v1.23H2.612A2.6,2.6,0,0,0,0,14.88V25.026a2.548,2.548,0,0,0,.308,1.524,1.649,1.649,0,0,0,1.423.486h2.21l.337,5.343c0,.013,0,.034,0,.06a1.608,1.608,0,0,0,.2.779,1.232,1.232,0,0,0,1.147.591h5.618l2.917-3.1h2.18l2.821,3.191h5.038a2.115,2.115,0,0,0,1.175-.21,1.814,1.814,0,0,0,.649-1.39c.145-1.077.179-4.024.245-5.268h2.208a1.821,1.821,0,0,0,1.412-.377A2.118,2.118,0,0,0,30.2,25.22V14.881A2.605,2.605,0,0,0,27.591,12.282Z" fill="#349334"/>
      <path id="Shape-2" data-name="Shape" d="M29.506,24.874c0,.665-.063,1.037-.228,1.208s-.487.265-1.153.263H25.586l-.008.164c-.061,1.172-.1,4.307-.251,5.4-.1.708-.28,1.008-.495,1.146a1.839,1.839,0,0,1-.985.153H18.965l-2.821-3.192H13.657L10.74,33.116H5.271a.879.879,0,0,1-.846-.418,1.263,1.263,0,0,1-.149-.6c0-.034,0-.048,0-.048v-.014l-.36-5.688H1.383c-.661,0-.976-.123-1.144-.348A2.281,2.281,0,0,1,0,24.68V14.533a2.26,2.26,0,0,1,2.264-2.251H3.987V10.706a10.766,10.766,0,0,1,21.532,0v1.576h1.724a2.258,2.258,0,0,1,2.262,2.251v10.34Z" transform="translate(0.348 0.346)" fill="#4cb649"/>
      <path id="Rectangle-path" d="M0,0H20.917V.683H0Z" transform="translate(4.667 26.411)" fill="#118011"/>
      <path id="Shape-3" data-name="Shape" d="M0,13.1V0H.348V13.1Z" transform="translate(4.319 13.558)" fill="#118011"/>
      <path id="Shape-4" data-name="Shape" d="M0,13.1V0H.349V13.1Z" transform="translate(25.584 13.558)" fill="#118011"/>
      <ellipse id="Oval" cx="7.49" cy="1.372" rx="7.49" ry="1.372" transform="translate(7.453 15.012)" fill="url(#linear-gradient)"/>
      <path id="Shape-5" data-name="Shape" d="M13.664,8.835v-2A6.832,6.832,0,0,0,0,6.832v2Z" transform="translate(8.272 4.038)" fill="#fff"/>
      <path id="Rectangle-path-2" data-name="Rectangle-path" d="M0,0H6.091V.713H0Z" transform="translate(12.224 10.787)" fill="url(#radial-gradient)"/>
      <circle id="Oval-2" data-name="Oval" cx="1.262" cy="1.262" r="1.262" transform="translate(11.565 6.507)"/>
      <circle id="Oval-3" data-name="Oval" cx="1.262" cy="1.262" r="1.262" transform="translate(16.065 6.507)"/>
      <rect id="Rectangle-path-3" data-name="Rectangle-path" width="4.584" height="3.425" transform="translate(12.651 20.485)" fill="#fff"/>
      <path id="Shape-6" data-name="Shape" d="M.544,1.771A1.685,1.685,0,0,1,2.146.523a1.687,1.687,0,0,1,1.6,1.247h.544A2.217,2.217,0,0,0,2.146,0,2.216,2.216,0,0,0,0,1.771Z" transform="translate(12.806 18.366)" fill="#fff"/>
      <path id="Shape-7" data-name="Shape" d="M2.65.392c.123,0,.235,0,.342-.01V0A4.588,4.588,0,0,1,2.3.042H.093C.059.661.035,1.7,0,2.719H.359c.03-.9.053-1.78.081-2.327Z" transform="translate(26.17 26.995)" fill="#118011"/>
      <path id="Shape-8" data-name="Shape" d="M2.632.19V0c-.108.005-.221.008-.342.01H.081C.052.557.029,1.434,0,2.336H.511A2.133,2.133,0,0,0,2.632.19Z" transform="translate(26.532 27.377)" fill="url(#linear-gradient-2)"/>
      <path id="Shape-9" data-name="Shape" d="M3.072.107H.861A2.793,2.793,0,0,1,0,0V.445A3.837,3.837,0,0,0,.458.468H2.669l.147,2.315h.426Z" transform="translate(0.869 26.93)" fill="#118011"/>
      <path id="Shape-10" data-name="Shape" d="M.458.023A4.072,4.072,0,0,1,0,0V.192A2.133,2.133,0,0,0,2.119,2.338h.7L2.668.023Z" transform="translate(0.869 27.376)" fill="url(#linear-gradient-3)"/>
    </g>
    <path id="Exclusion_2" data-name="Exclusion 2" d="M2552.61,5388.337h-3.11v-16.122h2.884l.108,1.14a3.674,3.674,0,0,1,2.949-1.355,3.955,3.955,0,0,1,3.346,1.593,7.2,7.2,0,0,1,1.2,4.391v.161a7.02,7.02,0,0,1-1.224,4.311,3.93,3.93,0,0,1-3.3,1.62,3.64,3.64,0,0,1-2.851-1.228v5.488Zm2.012-13.83a2.042,2.042,0,0,0-2.012,1.123v4.782a2.078,2.078,0,0,0,2.033,1.156c1.479,0,2.229-1.231,2.229-3.659a4.634,4.634,0,0,0-.576-2.516A1.879,1.879,0,0,0,2554.623,5374.507Z" transform="translate(-2453.452 -5277.898)" fill="#22252e" stroke="rgba(0,0,0,0)" stroke-miterlimit="10" stroke-width="1"/>
    <path id="Shape-11" data-name="Shape" d="M6.543,3.133a8.5,8.5,0,0,0-1.119-.086A2.279,2.279,0,0,0,3.11,4.242v7.619H0V.216H2.939L3.024,1.6A2.883,2.883,0,0,1,5.618,0a3.263,3.263,0,0,1,.968.14Z" transform="translate(108.787 94.102)" fill="#22252e"/>
    <path id="Shape-12" data-name="Shape" d="M.183,16.262V4.616H3.3V16.262Zm.3-13.5A1.528,1.528,0,0,1,0,1.6,1.531,1.531,0,0,1,.468.452,1.758,1.758,0,0,1,1.743,0a1.762,1.762,0,0,1,1.27.452A1.522,1.522,0,0,1,3.487,1.6a1.527,1.527,0,0,1-.479,1.162,1.769,1.769,0,0,1-1.265.452A1.765,1.765,0,0,1,.479,2.766Z" transform="translate(117.135 89.702)" fill="#22252e"/>
    <path id="Shape-13" data-name="Shape" d="M5.413,7.846,7.576,0h3.25L6.9,11.645H3.928L0,0H3.25Z" transform="translate(122.277 94.317)" fill="#22252e"/>
    <path id="Exclusion_1" data-name="Exclusion 1" d="M2553.461,5384.077a4.151,4.151,0,0,1-2.836-.991,3.194,3.194,0,0,1-1.124-2.5,3.305,3.305,0,0,1,1.371-2.841,6.814,6.814,0,0,1,3.966-1h1.431v-.666a1.932,1.932,0,0,0-.414-1.292,1.635,1.635,0,0,0-1.308-.485,1.871,1.871,0,0,0-1.232.377,1.284,1.284,0,0,0-.447,1.032h-3.111a3.144,3.144,0,0,1,.626-1.873,4.138,4.138,0,0,1,1.765-1.352,6.481,6.481,0,0,1,2.562-.489,5.1,5.1,0,0,1,3.416,1.082,3.8,3.8,0,0,1,1.265,3.039v5.048a5.582,5.582,0,0,0,.462,2.507v.184h-3.142a3.4,3.4,0,0,1-.311-1.042A3.785,3.785,0,0,1,2553.461,5384.077Zm1.647-5.51c-1.55,0-2.387.543-2.486,1.613l-.011.184a1.246,1.246,0,0,0,.409.957,1.591,1.591,0,0,0,1.119.378,2.7,2.7,0,0,0,1.27-.307,2.031,2.031,0,0,0,.861-.824v-2Z" transform="translate(-2415.324 -5277.898)" fill="#22252e" stroke="rgba(0,0,0,0)" stroke-miterlimit="10" stroke-width="1"/>
    <path id="Shape-14" data-name="Shape" d="M4.812,0V2.862H6.8V5.144H4.812v5.812a1.391,1.391,0,0,0,.247.926,1.241,1.241,0,0,0,.947.28,5,5,0,0,0,.914-.075v2.357a6.421,6.421,0,0,1-1.884.28q-3.273,0-3.336-3.3V5.145H0V2.862H1.7V0Z" transform="translate(145.699 91.455)" fill="#22252e"/>
    <path id="Exclusion_3" data-name="Exclusion 3" d="M2555.279,5384.075a5.736,5.736,0,0,1-4.17-1.571,5.608,5.608,0,0,1-1.609-4.186v-.3a7.072,7.072,0,0,1,.678-3.138,5.015,5.015,0,0,1,1.92-2.131,5.424,5.424,0,0,1,2.836-.747,4.852,4.852,0,0,1,3.762,1.506,6.147,6.147,0,0,1,1.373,4.272v1.269h-7.416a2.9,2.9,0,0,0,.909,1.83,2.761,2.761,0,0,0,1.921.689,3.376,3.376,0,0,0,2.809-1.3l1.528,1.711a4.7,4.7,0,0,1-1.894,1.544A6.25,6.25,0,0,1,2555.279,5384.075Zm-.355-9.568a1.952,1.952,0,0,0-1.5.627,3.266,3.266,0,0,0-.738,1.8h4.326v-.249a2.332,2.332,0,0,0-.558-1.6A2.018,2.018,0,0,0,2554.923,5374.507Z" transform="translate(-2395.354 -5277.896)" fill="#22252e" stroke="rgba(0,0,0,0)" stroke-miterlimit="10" stroke-width="1"/>
    <path id="Shape-15" data-name="Shape" d="M.226,15.875V4.23H1.518V15.875Zm.011-14.4A.847.847,0,0,1,0,.866.867.867,0,0,1,.237.252.844.844,0,0,1,.882,0a.862.862,0,0,1,.652.252.853.853,0,0,1,.242.615.832.832,0,0,1-.242.61.872.872,0,0,1-.652.247A.852.852,0,0,1,.237,1.476Z" transform="translate(167.218 90.088)" fill="#22252e"/>
    <path id="Shape-16" data-name="Shape" d="M1.227.216l.043,1.991A4.627,4.627,0,0,1,2.907.566,4.243,4.243,0,0,1,5.07,0,3.494,3.494,0,0,1,7.857,1.055a4.757,4.757,0,0,1,.926,3.164V11.86H7.5V4.208A3.557,3.557,0,0,0,6.84,1.884a2.593,2.593,0,0,0-2.082-.764,3.264,3.264,0,0,0-2.115.747A4.383,4.383,0,0,0,1.281,3.885v7.974H0V.216Z" transform="translate(172.563 94.102)" fill="#22252e"/>
    <path id="Shape-17" data-name="Shape" d="M3.431,0V2.981H5.842V4.036H3.431V11.8a2.428,2.428,0,0,0,.35,1.444,1.355,1.355,0,0,0,1.168.474,8,8,0,0,0,1.044-.108l.054,1.045a4.218,4.218,0,0,1-1.377.181,2.3,2.3,0,0,1-1.926-.77,3.623,3.623,0,0,1-.6-2.265V4.036H0V2.981H2.142V0Z" transform="translate(183.572 91.337)" fill="#22252e"/>
    <path id="Shape-18" data-name="Shape" d="M5.218,12.075a5.085,5.085,0,0,1-2.685-.731A5,5,0,0,1,.667,9.305,6.393,6.393,0,0,1,0,6.372V5.909A6.89,6.89,0,0,1,.651,2.885,5.219,5.219,0,0,1,2.464.77,4.492,4.492,0,0,1,4.982,0,4.225,4.225,0,0,1,8.346,1.448,5.9,5.9,0,0,1,9.589,5.4v.721H1.28v.247a4.9,4.9,0,0,0,1.136,3.3,3.628,3.628,0,0,0,2.857,1.319A4.228,4.228,0,0,0,7.1,10.613,4.054,4.054,0,0,0,8.534,9.408l.807.613A4.723,4.723,0,0,1,5.218,12.075ZM4.982,1.1A3.235,3.235,0,0,0,2.534,2.164,4.943,4.943,0,0,0,1.323,5.027H8.308v-.14A4.286,4.286,0,0,0,7.35,2.153,2.986,2.986,0,0,0,4.982,1.1Z" transform="translate(191.705 94.102)" fill="#22252e"/>
    <path id="Shape-19" data-name="Shape" d="M5.382,1.314a4.863,4.863,0,0,0-.872-.075,3.15,3.15,0,0,0-2.04.672A3.682,3.682,0,0,0,1.281,3.865v8H0V.216H1.259L1.28,2.067A3.425,3.425,0,0,1,4.562,0a2.123,2.123,0,0,1,.85.14Z" transform="translate(204.129 94.102)" fill="#22252e"/>
    <path id="Shape-20" data-name="Shape" d="M1.227.216l.043,1.991A4.627,4.627,0,0,1,2.907.566,4.243,4.243,0,0,1,5.07,0,3.494,3.494,0,0,1,7.857,1.055a4.757,4.757,0,0,1,.926,3.164V11.86H7.5V4.208A3.557,3.557,0,0,0,6.84,1.884a2.593,2.593,0,0,0-2.082-.764,3.264,3.264,0,0,0-2.115.747A4.383,4.383,0,0,0,1.281,3.885v7.974H0V.216Z" transform="translate(211.876 94.102)" fill="#22252e"/>
    <path id="Shape-21" data-name="Shape" d="M5.218,12.075a5.085,5.085,0,0,1-2.685-.731A5,5,0,0,1,.667,9.305,6.393,6.393,0,0,1,0,6.372V5.909A6.89,6.89,0,0,1,.651,2.885,5.219,5.219,0,0,1,2.464.77,4.492,4.492,0,0,1,4.982,0,4.225,4.225,0,0,1,8.346,1.448,5.9,5.9,0,0,1,9.589,5.4v.721H1.28v.247a4.9,4.9,0,0,0,1.136,3.3,3.628,3.628,0,0,0,2.857,1.319A4.228,4.228,0,0,0,7.1,10.613,4.054,4.054,0,0,0,8.534,9.408l.807.613A4.719,4.719,0,0,1,5.218,12.075ZM4.982,1.1A3.235,3.235,0,0,0,2.534,2.164,4.943,4.943,0,0,0,1.323,5.027H8.308v-.14A4.286,4.286,0,0,0,7.35,2.153,2.984,2.984,0,0,0,4.982,1.1Z" transform="translate(223.605 94.102)" fill="#22252e"/>
    <path id="Shape-22" data-name="Shape" d="M3.431,0V2.981H5.842V4.036H3.431V11.8a2.428,2.428,0,0,0,.35,1.444,1.355,1.355,0,0,0,1.168.474,8,8,0,0,0,1.044-.108l.054,1.045a4.218,4.218,0,0,1-1.377.181,2.3,2.3,0,0,1-1.926-.77,3.623,3.623,0,0,1-.6-2.265V4.036H0V2.981H2.142V0Z" transform="translate(234.603 91.337)" fill="#22252e"/>
    <path id="Shape-23" data-name="Shape" d="M3.757,12.074a3.918,3.918,0,0,1-2.717-.937A3.062,3.062,0,0,1,0,8.77,3.128,3.128,0,0,1,1.416,6.079a6.839,6.839,0,0,1,3.945-.99H7.7V3.766A2.562,2.562,0,0,0,6.926,1.8a3.2,3.2,0,0,0-2.244-.715,3.526,3.526,0,0,0-2.228.689,2.057,2.057,0,0,0-.883,1.658L.279,3.422a3,3,0,0,1,1.292-2.4A4.994,4.994,0,0,1,4.746,0,4.555,4.555,0,0,1,7.819.975,3.511,3.511,0,0,1,8.976,3.692V9.2a6.883,6.883,0,0,0,.355,2.53v.129H7.953a6.2,6.2,0,0,1-.247-1.628,4.521,4.521,0,0,1-1.727,1.362A5.3,5.3,0,0,1,3.757,12.074Zm1.635-6a5.8,5.8,0,0,0-3.013.706A2.123,2.123,0,0,0,1.292,8.662a2.089,2.089,0,0,0,.726,1.625,2.747,2.747,0,0,0,1.889.646,4.337,4.337,0,0,0,2.309-.626A3.68,3.68,0,0,0,7.7,8.639V6.078Z" transform="translate(242.841 94.105)" fill="#22252e"/>
    <path id="Shape-24" data-name="Shape" d="M4.971,10.988a3.4,3.4,0,0,0,2.255-.759,2.672,2.672,0,0,0,.985-1.964H9.449a3.646,3.646,0,0,1-.667,1.943,4.182,4.182,0,0,1-1.63,1.372,4.92,4.92,0,0,1-2.18.495A4.5,4.5,0,0,1,1.34,10.482,6.438,6.438,0,0,1,0,6.2V5.811A7.28,7.28,0,0,1,.6,2.765,4.639,4.639,0,0,1,2.33.721,4.765,4.765,0,0,1,4.961,0,4.492,4.492,0,0,1,8.119,1.141a4.159,4.159,0,0,1,1.329,3H8.21a3.168,3.168,0,0,0-.985-2.206A3.191,3.191,0,0,0,4.96,1.1,3.212,3.212,0,0,0,2.253,2.357a5.7,5.7,0,0,0-.963,3.53v.376a5.576,5.576,0,0,0,.963,3.477A3.238,3.238,0,0,0,4.971,10.988Z" transform="translate(254.914 94.103)" fill="#22252e"/>
    <path id="Shape-25" data-name="Shape" d="M4.971,10.988a3.4,3.4,0,0,0,2.255-.759,2.672,2.672,0,0,0,.985-1.964H9.449a3.646,3.646,0,0,1-.667,1.943,4.182,4.182,0,0,1-1.63,1.372,4.92,4.92,0,0,1-2.18.495A4.5,4.5,0,0,1,1.34,10.482,6.438,6.438,0,0,1,0,6.2V5.811A7.28,7.28,0,0,1,.6,2.765,4.639,4.639,0,0,1,2.33.721,4.765,4.765,0,0,1,4.961,0,4.492,4.492,0,0,1,8.119,1.141a4.159,4.159,0,0,1,1.329,3H8.21a3.168,3.168,0,0,0-.985-2.206A3.191,3.191,0,0,0,4.96,1.1,3.212,3.212,0,0,0,2.253,2.357a5.7,5.7,0,0,0-.963,3.53v.376a5.576,5.576,0,0,0,.963,3.477A3.238,3.238,0,0,0,4.971,10.988Z" transform="translate(266.598 94.103)" fill="#22252e"/>
    <path id="Shape-26" data-name="Shape" d="M5.218,12.075a5.085,5.085,0,0,1-2.685-.731A5,5,0,0,1,.667,9.305,6.393,6.393,0,0,1,0,6.372V5.909A6.89,6.89,0,0,1,.651,2.885,5.219,5.219,0,0,1,2.464.77,4.492,4.492,0,0,1,4.982,0,4.225,4.225,0,0,1,8.346,1.448,5.9,5.9,0,0,1,9.589,5.4v.721H1.28v.247a4.9,4.9,0,0,0,1.136,3.3,3.628,3.628,0,0,0,2.857,1.319A4.228,4.228,0,0,0,7.1,10.613,4.054,4.054,0,0,0,8.534,9.408l.807.613A4.719,4.719,0,0,1,5.218,12.075ZM4.982,1.1A3.235,3.235,0,0,0,2.534,2.164,4.943,4.943,0,0,0,1.323,5.027H8.308v-.14A4.286,4.286,0,0,0,7.35,2.153,2.984,2.984,0,0,0,4.982,1.1Z" transform="translate(278.24 94.102)" fill="#22252e"/>
    <path id="Shape-27" data-name="Shape" d="M7.564,8.9a1.837,1.837,0,0,0-.77-1.539,5.927,5.927,0,0,0-2.319-.909A10.433,10.433,0,0,1,2.07,5.7,3.2,3.2,0,0,1,.8,4.66,2.593,2.593,0,0,1,.386,3.175,2.772,2.772,0,0,1,1.537.9,4.649,4.649,0,0,1,4.486,0,4.794,4.794,0,0,1,7.613.963,3.093,3.093,0,0,1,8.791,3.477H7.5a2.088,2.088,0,0,0-.855-1.7A3.365,3.365,0,0,0,4.486,1.1a3.361,3.361,0,0,0-2.039.566,1.743,1.743,0,0,0-.77,1.469,1.588,1.588,0,0,0,.641,1.351,6.769,6.769,0,0,0,2.335.877,10.982,10.982,0,0,1,2.54.85A3.291,3.291,0,0,1,8.447,7.3a2.784,2.784,0,0,1,.409,1.539,2.79,2.79,0,0,1-1.189,2.357,5.077,5.077,0,0,1-3.1.883,5.219,5.219,0,0,1-3.3-.984A3.03,3.03,0,0,1,0,8.6H1.292a2.24,2.24,0,0,0,.952,1.76,3.894,3.894,0,0,0,2.319.629A3.665,3.665,0,0,0,6.738,10.4,1.786,1.786,0,0,0,7.564,8.9Z" transform="translate(290.077 94.103)" fill="#22252e"/>
    <path id="Shape-28" data-name="Shape" d="M7.564,8.9a1.837,1.837,0,0,0-.77-1.539,5.927,5.927,0,0,0-2.319-.909A10.433,10.433,0,0,1,2.07,5.7,3.2,3.2,0,0,1,.8,4.66,2.593,2.593,0,0,1,.386,3.175,2.772,2.772,0,0,1,1.537.9,4.649,4.649,0,0,1,4.486,0,4.794,4.794,0,0,1,7.613.963,3.093,3.093,0,0,1,8.791,3.477H7.5a2.088,2.088,0,0,0-.855-1.7A3.365,3.365,0,0,0,4.486,1.1a3.361,3.361,0,0,0-2.039.566,1.743,1.743,0,0,0-.77,1.469,1.588,1.588,0,0,0,.641,1.351,6.769,6.769,0,0,0,2.335.877,10.982,10.982,0,0,1,2.54.85A3.291,3.291,0,0,1,8.447,7.3a2.784,2.784,0,0,1,.409,1.539,2.79,2.79,0,0,1-1.189,2.357,5.077,5.077,0,0,1-3.1.883,5.219,5.219,0,0,1-3.3-.984A3.03,3.03,0,0,1,0,8.6H1.292a2.24,2.24,0,0,0,.952,1.76,3.894,3.894,0,0,0,2.319.629A3.665,3.665,0,0,0,6.738,10.4,1.784,1.784,0,0,0,7.564,8.9Z" transform="translate(301.567 94.103)" fill="#22252e"/>
    <path id="Shape-29" data-name="Shape" d="M.453,3.415H0V0H1.131a1.341,1.341,0,0,1,.887.262.95.95,0,0,1,.311.764.924.924,0,0,1-.172.556,1.036,1.036,0,0,1-.48.355l.8,1.449v.027H2l-.741-1.38h-.8V3.414Zm0-3.046v1.3h.692a.779.779,0,0,0,.533-.174.583.583,0,0,0,.2-.465A.625.625,0,0,0,1.688.54.8.8,0,0,0,1.143.368Z" transform="translate(315.302 89.292)" fill="#22252e"/>
    <path id="Shape-30" data-name="Shape" d="M3.609,7.219a3.609,3.609,0,1,1,3.608-3.61A3.613,3.613,0,0,1,3.609,7.219Zm0-6.684A3.075,3.075,0,1,0,6.683,3.61,3.079,3.079,0,0,0,3.609.535Z" transform="translate(312.778 87.439)" fill="#22252e"/>
  </g>
</svg>
