<svg xmlns="http://www.w3.org/2000/svg" width="78.926" height="21.032" viewBox="0 0 78.926 21.032">
  <g id="g10" transform="translate(0 140.371)">
    <g id="g12" transform="translate(0 -140.371)">
      <path id="path14" d="M9.471-140.366H3.332a.853.853,0,0,0-.843.72L.006-123.9a.511.511,0,0,0,.506.591H3.443a.853.853,0,0,0,.843-.721l.67-4.246A.852.852,0,0,1,5.8-129H7.741c4.044,0,6.378-1.957,6.987-5.835a4.728,4.728,0,0,0-.783-3.963C13.073-139.824,11.526-140.366,9.471-140.366Zm.708,5.749c-.336,2.2-2.019,2.2-3.646,2.2H5.607l.65-4.114a.511.511,0,0,1,.505-.432h.425c1.109,0,2.154,0,2.695.632a2.046,2.046,0,0,1,.3,1.711" transform="translate(0 140.367)" fill="#889099"/>
      <path id="path16" d="M106.791-104.035h-2.94a.512.512,0,0,0-.505.432l-.13.822-.206-.3c-.636-.924-2.056-1.232-3.472-1.232A6.76,6.76,0,0,0,92.975-98.4a5.549,5.549,0,0,0,1.1,4.516,4.6,4.6,0,0,0,3.7,1.5,5.625,5.625,0,0,0,4.069-1.683l-.131.817a.511.511,0,0,0,.5.592h2.648a.853.853,0,0,0,.843-.721l1.589-10.062A.509.509,0,0,0,106.791-104.035Zm-4.1,5.722a3.276,3.276,0,0,1-3.317,2.807A2.48,2.48,0,0,1,97.4-96.3a2.5,2.5,0,0,1-.461-2.065,3.291,3.291,0,0,1,3.294-2.829,2.48,2.48,0,0,1,1.961.8,2.545,2.545,0,0,1,.5,2.08" transform="translate(-78.97 109.714)" fill="#889099"/>
      <path id="path18" d="M212.466-102.466h-2.954a.856.856,0,0,0-.706.374l-4.074,6L203-101.857a.856.856,0,0,0-.819-.609h-2.9a.512.512,0,0,0-.486.677l3.254,9.549-3.059,4.319a.512.512,0,0,0,.417.808h2.951a.851.851,0,0,0,.7-.366l9.825-14.183a.511.511,0,0,0-.42-.8" transform="translate(-168.988 108.145)" fill="#889099"/>
      <path id="path20" d="M301.721-140.366h-6.14a.853.853,0,0,0-.842.72L292.256-123.9a.511.511,0,0,0,.5.591h3.151a.6.6,0,0,0,.589-.5l.7-4.462a.852.852,0,0,1,.842-.721h1.943c4.045,0,6.378-1.957,6.988-5.835a4.725,4.725,0,0,0-.784-3.963C305.322-139.824,303.775-140.366,301.721-140.366Zm.708,5.749c-.335,2.2-2.018,2.2-3.646,2.2h-.925l.651-4.114a.51.51,0,0,1,.5-.432h.425c1.108,0,2.154,0,2.695.632a2.046,2.046,0,0,1,.3,1.711" transform="translate(-248.462 140.367)" fill="#889099"/>
      <path id="path22" d="M399.057-104.035h-2.938a.509.509,0,0,0-.5.432l-.13.822-.206-.3c-.636-.924-2.055-1.232-3.471-1.232a6.759,6.759,0,0,0-6.563,5.912,5.552,5.552,0,0,0,1.094,4.516,4.6,4.6,0,0,0,3.7,1.5,5.625,5.625,0,0,0,4.069-1.683l-.131.817a.512.512,0,0,0,.506.592h2.647a.853.853,0,0,0,.842-.721l1.59-10.062A.513.513,0,0,0,399.057-104.035Zm-4.1,5.722a3.275,3.275,0,0,1-3.317,2.807,2.482,2.482,0,0,1-1.974-.793,2.506,2.506,0,0,1-.461-2.065,3.292,3.292,0,0,1,3.294-2.829,2.48,2.48,0,0,1,1.96.8,2.532,2.532,0,0,1,.5,2.08" transform="translate(-327.449 109.714)" fill="#889099"/>
      <path id="path24" d="M486.73-139.939l-2.52,16.03a.511.511,0,0,0,.5.591h2.533a.852.852,0,0,0,.843-.721l2.485-15.741a.511.511,0,0,0-.5-.592h-2.837a.513.513,0,0,0-.5.433" transform="translate(-411.656 140.371)" fill="#889099"/>
    </g>
  </g>
</svg>
