<svg xmlns="http://www.w3.org/2000/svg" width="92.874" height="28.458" viewBox="0 0 92.874 28.458">
  <g id="Group_4" data-name="Group 4" transform="translate(2826.374 2243.959)">
    <path id="Path_13" data-name="Path 13" d="M35.056,78.409l8.217-27.093h7.332L42.388,78.409ZM31.779,51.323l-6.6,11.485c-1.679,3.008-2.66,4.527-3.132,6.428h-.1c.117-2.41-.219-5.368-.251-7.04l-.728-10.873H8.631l-.127.729c3.171,0,5.051,1.593,5.568,4.851l2.406,21.506h7.6L39.431,51.323ZM88.794,78.409l-.2-4.029-9.155-.007-1.872,4.036H69.6L84.037,51.367h9.77l2.444,27.041H88.794Zm-.841-15.981a62.16,62.16,0,0,1-.013-6.365h-.108c-.446,1.345-2.363,5.384-3.206,7.37L81.9,69.372h6.428l-.373-6.944ZM58.3,79.179a20.5,20.5,0,0,1-11.064-3.106l3.493-5.334c2.2,1.231,3.93,2.652,7.907,2.652a3.4,3.4,0,0,0,3.211-1.544c1.02-1.762-.235-2.71-3.1-4.332l-1.414-.92c-4.246-2.9-6.082-5.657-4.083-10.466,1.279-3.077,4.652-5.409,10.217-5.409A16.416,16.416,0,0,1,73,54l-4.015,4.709c-2.046-1.655-3.741-2.492-5.682-2.492a3.417,3.417,0,0,0-3.128,1.4c-.764,1.513.247,2.544,2.478,3.93l1.682,1.07c5.155,3.251,6.383,6.66,5.091,9.847C67.2,77.954,62.853,79.179,58.3,79.179ZM98.257,55.506h-.483V52.569h1.114c.709,0,1.071.248,1.071.844a.751.751,0,0,1-.767.8l.823,1.292H99.47l-.759-1.256h-.454v1.256Zm.538-1.667c.363,0,.681-.035.681-.461,0-.355-.348-.4-.638-.4h-.582v.859Zm-.014,2.8a2.654,2.654,0,1,1,2.6-2.653A2.553,2.553,0,0,1,98.781,56.641Zm0-4.845a2.2,2.2,0,1,0,2.029,2.192A2.059,2.059,0,0,0,98.781,51.8Z" transform="translate(-2834.878 -2294.68)" fill="#889099" fill-rule="evenodd"/>
  </g>
</svg>
